/* XPM */
static char * xfce4_wmdock_plugin_xpm[] = {
"64 64 385 2",
"  	c #EFEBEF",
". 	c #EFEFEF",
"+ 	c #E7E7E7",
"@ 	c #E7E3E7",
"# 	c #DEDFDE",
"$ 	c #DEDBDE",
"% 	c #C6C3C6",
"& 	c #000000",
"* 	c #4A515A",
"= 	c #DEDFE7",
"- 	c #DEDBE7",
"; 	c #D6DBDE",
"> 	c #D6D7DE",
", 	c #D6D3DE",
"' 	c #D6CFDE",
") 	c #CECFD6",
"! 	c #CECBD6",
"~ 	c #C6C7D6",
"{ 	c #C6C7CE",
"] 	c #C6C3CE",
"^ 	c #BDBECE",
"/ 	c #BDBEC6",
"( 	c #BDBAC6",
"_ 	c #B5B6C6",
": 	c #B5B2BD",
"< 	c #B5AEBD",
"[ 	c #ADAEBD",
"} 	c #ADAAB5",
"| 	c #ADA6B5",
"1 	c #A5A6B5",
"2 	c #A59EAD",
"3 	c #9C9AAD",
"4 	c #8C8A9C",
"5 	c #4A4952",
"6 	c #CECFDE",
"7 	c #BDB6C6",
"8 	c #A5A6AD",
"9 	c #948E9C",
"0 	c #8C8A94",
"a 	c #B5B6BD",
"b 	c #ADAABD",
"c 	c #9C9EAD",
"d 	c #9C9AA5",
"e 	c #94929C",
"f 	c #8C8E9C",
"g 	c #848A94",
"h 	c #4A454A",
"i 	c #9496A5",
"j 	c #848694",
"k 	c #42454A",
"l 	c #CED3DE",
"m 	c #A5A2AD",
"n 	c #9C96A5",
"o 	c #9492A5",
"p 	c #424142",
"q 	c #393C42",
"r 	c #848294",
"s 	c #7B7D8C",
"t 	c #393842",
"u 	c #D6D3D6",
"v 	c #CEC7D6",
"w 	c #A5A2B5",
"x 	c #7B798C",
"y 	c #8C929C",
"z 	c #84828C",
"A 	c #C6CBD6",
"B 	c #9CA2AD",
"C 	c #7B828C",
"D 	c #73798C",
"E 	c #393439",
"F 	c #8C8E94",
"G 	c #737984",
"H 	c #949AA5",
"I 	c #94969C",
"J 	c #737584",
"K 	c #6E6C72",
"L 	c #64656C",
"M 	c #AFB0B7",
"N 	c #A4A5B4",
"O 	c #87878D",
"P 	c #313439",
"Q 	c #E1E1E5",
"R 	c #A2A2A5",
"S 	c #373739",
"T 	c #434245",
"U 	c #87858D",
"V 	c #C4C1CC",
"W 	c #B5BAC6",
"X 	c #3A3A3C",
"Y 	c #5B595F",
"Z 	c #73717B",
"` 	c #D6D7DC",
" .	c #F0EFF2",
"..	c #9F9FA1",
"+.	c #2F2F31",
"@.	c #212022",
"#.	c #636267",
"$.	c #A5A5B3",
"%.	c #706B75",
"&.	c #35353A",
"*.	c #90919E",
"=.	c #151516",
"-.	c #333436",
";.	c #313031",
">.	c #D8D6DE",
",.	c #F1F0F3",
"'.	c #9B9B9C",
").	c #2A2A2C",
"!.	c #080808",
"~.	c #3E3E40",
"{.	c #88898F",
"].	c #9D9EAC",
"^.	c #161617",
"/.	c #3E3F41",
"(.	c #2A2A2A",
"_.	c #070707",
":.	c #8F919F",
"<.	c #80828F",
"[.	c #898B98",
"}.	c #D5D6E0",
"|.	c #EFF0F1",
"1.	c #979797",
"2.	c #262626",
"3.	c #020202",
"4.	c #3F3F42",
"5.	c #9D9BA5",
"6.	c #B5B2C6",
"7.	c #9A9BA8",
"8.	c #030303",
"9.	c #040404",
"0.	c #7D7B83",
"a.	c #414242",
"b.	c #7F7E8B",
"c.	c #5E5F67",
"d.	c #56575F",
"e.	c #7B7984",
"f.	c #312C31",
"g.	c #BEBFC7",
"h.	c #D7D8DD",
"i.	c #EEEEEF",
"j.	c #8E8E8E",
"k.	c #090809",
"l.	c #505258",
"m.	c #ACADBC",
"n.	c #ADAEBC",
"o.	c #1F1F1F",
"p.	c #262628",
"q.	c #383839",
"r.	c #55545B",
"s.	c #7D7C85",
"t.	c #9B99A4",
"u.	c #5D5E62",
"v.	c #6C6D78",
"w.	c #76777D",
"x.	c #292829",
"y.	c #BFC0C7",
"z.	c #DAD8DF",
"A.	c #D7D6D7",
"B.	c #464647",
"C.	c #27272A",
"D.	c #9B99A2",
"E.	c #323232",
"F.	c #0F0F10",
"G.	c #2E3033",
"H.	c #51525B",
"I.	c #787A86",
"J.	c #85868B",
"K.	c #63636A",
"L.	c #B4B5BE",
"M.	c #BFC3CE",
"N.	c #E8E9ED",
"O.	c #878787",
"P.	c #0B0B0B",
"Q.	c #141415",
"R.	c #85838B",
"S.	c #A29FB1",
"T.	c #0F0F0F",
"U.	c #131313",
"V.	c #2E2F34",
"W.	c #88878C",
"X.	c #ACAEB5",
"Y.	c #8D8B9D",
"Z.	c #6B6D7B",
"`.	c #B6B3C6",
" +	c #D8D6DC",
".+	c #C2C2C3",
"++	c #1E1E1F",
"@+	c #62626B",
"#+	c #686871",
"$+	c #323237",
"%+	c #161618",
"&+	c #151517",
"*+	c #18181B",
"=+	c #343337",
"-+	c #505257",
";+	c #6D6E78",
">+	c #83848F",
",+	c #9596A3",
"'+	c #A3A4B3",
")+	c #5C5A60",
"!+	c #151515",
"~+	c #4B4B4B",
"{+	c #8F8F90",
"]+	c #323337",
"^+	c #888697",
"/+	c #737184",
"(+	c #292429",
"_+	c #ADB2BD",
":+	c #C6C3CC",
"<+	c #CDCDCF",
"[+	c #080809",
"}+	c #131314",
"|+	c #1E1E20",
"1+	c #050506",
"2+	c #505050",
"3+	c #434445",
"4+	c #383942",
"5+	c #BABEC8",
"6+	c #959697",
"7+	c #090909",
"8+	c #3C3C3D",
"9+	c #181819",
"0+	c #6B6973",
"a+	c #212429",
"b+	c #3C3D3F",
"c+	c #5D5D5E",
"d+	c #8C8D99",
"e+	c #050505",
"f+	c #1B1B1B",
"g+	c #242424",
"h+	c #696969",
"i+	c #C1C1C7",
"j+	c #7B7584",
"k+	c #636573",
"l+	c #59595F",
"m+	c #010101",
"n+	c #060606",
"o+	c #202020",
"p+	c #464646",
"q+	c #C7C7C7",
"r+	c #CCCDD3",
"s+	c #8C8A9B",
"t+	c #474749",
"u+	c #1A1A1B",
"v+	c #282828",
"w+	c #A5A5A5",
"x+	c #DFDFE4",
"y+	c #A4A2AA",
"z+	c #212029",
"A+	c #ADAEB5",
"B+	c #302F30",
"C+	c #111111",
"D+	c #7F7F7F",
"E+	c #E4E3E6",
"F+	c #B5B3BF",
"G+	c #736D7B",
"H+	c #6B697B",
"I+	c #636173",
"J+	c #363636",
"K+	c #D6D6D7",
"L+	c #C5C4CD",
"M+	c #918FA0",
"N+	c #212021",
"O+	c #A5AAB5",
"P+	c #1D1D1D",
"Q+	c #49494A",
"R+	c #9B99A9",
"S+	c #847D8C",
"T+	c #63697B",
"U+	c #5C5B67",
"V+	c #636973",
"W+	c #63616B",
"X+	c #74757F",
"Y+	c #7C7A83",
"Z+	c #6B717B",
"`+	c #9E9FAD",
" @	c #171719",
".@	c #2F2F2F",
"+@	c #303030",
"@@	c #37373A",
"#@	c #5A5D6B",
"$@	c #6B6C75",
"%@	c #212121",
"&@	c #545454",
"*@	c #0D0D0D",
"=@	c #D6D6D8",
"-@	c #E3E3E3",
";@	c #9E9E9E",
">@	c #7B7C7F",
",@	c #181C21",
"'@	c #B7B8BC",
")@	c #F3F2F4",
"!@	c #98979A",
"~@	c #BFBFC0",
"{@	c #FAFAFB",
"]@	c #F4F4F4",
"^@	c #DEDEDE",
"/@	c #CECECE",
"(@	c #C2C2C2",
"_@	c #B5B5B5",
":@	c #A8A8A8",
"<@	c #9C9C9C",
"[@	c #909090",
"}@	c #919191",
"|@	c #989898",
"1@	c #9F9F9F",
"2@	c #A7A7A7",
"3@	c #A4A4A4",
"4@	c #595959",
"5@	c #0C0C0C",
"6@	c #3C3B3F",
"7@	c #97959E",
"8@	c #B3B4BD",
"9@	c #B7B8C0",
"0@	c #181C18",
"a@	c #ABA9B3",
"b@	c #59575C",
"c@	c #424242",
"d@	c #D8D8DA",
"e@	c #B4B5C1",
"f@	c #9F9EB0",
"g@	c #A9A7B1",
"h@	c #AFADB6",
"i@	c #AEB2BB",
"j@	c #B3B7BF",
"k@	c #B9BAC4",
"l@	c #BEBFC8",
"m@	c #C3C4CC",
"n@	c #C2C3CC",
"o@	c #BFBEC9",
"p@	c #BCBBC1",
"q@	c #B5B6BF",
"r@	c #D7D8DC",
"s@	c #DFDFE0",
"t@	c #888888",
"u@	c #343434",
"v@	c #747683",
"w@	c #181818",
"x@	c #646468",
"y@	c #6C6C6C",
"z@	c #A6A8B6",
"A@	c #9896A6",
"B@	c #C2C1CA",
"C@	c #E8E7E9",
"D@	c #BFBFBF",
"E@	c #8B8B8B",
"F@	c #8D8E9A",
"G@	c #D0D1D8",
"H@	c #D5D6DC",
"I@	c #9E9CAF",
"J@	c #A3A4AF",
"K@	c #BBBDC4",
"L@	c #5A5963",
"M@	c #101818",
"N@	c #6B6573",
"O@	c #101418",
"P@	c #635D6B",
"Q@	c #52515A",
"R@	c #525563",
"S@	c #8C869C",
"T@	c #8C8694",
"U@	c #5A5563",
"V@	c #4A4D5A",
"W@	c #101010",
"X@	c #63657B",
"Y@	c #5A596B",
"Z@	c #5A556B",
"`@	c #525163",
" #	c #6B657B",
".#	c #84869C",
"+#	c #42455A",
"@#	c #424152",
"##	c #081010",
"$#	c #212431",
"%#	c #080C10",
"&#	c #7B8294",
"*#	c #5A616B",
"=#	c #52596B",
"-#	c #000400",
";#	c #4A494A",
">#	c #423C42",
",#	c #292C31",
"'#	c #211C21",
")#	c #181418",
"!#	c #100C10",
"  . . . . . . .             + + + + + + @ @ @ @ @ @ # # # # # # # # $ # $ $ $ $ $ $ $ $ $ $ $ $ $ $ $ $ $ $ $ $ $ $ $ $ $ $ % & ",
". . . . .   .             + + + + @ + @ @ @ @ @ @ # @ # @ # # # # $ # $ $ $ $ $ $ $ $ $ $ $ $ $ $ $ $ $ $ $ $ $ $ $ $ $ $ $ * & ",
". . . @ = = = = = - - - ; > > > > > > > , , , ' ' ) ) ) ! ! ! ! ! ! ! ~ ~ { ] ] ] ] ^ / ( ( ( ( ( _ : : : < [ } } | 1 2 3 4 5 & ",
". . @ = = = = = - - - > $ > > > > > , , , , ' 6 6 ) ! ! ! ! ! ! ! ~ { { ] ] ] ] ^ / / ( ( ( ( 7 _ : : : [ [ } } 1 8 2 3 9 0 5 & ",
".   = @ = = - - - ; > > > > > > , , , , 6 6 ) ) ) ! ! ! ! ! ! { { { { ] ] ] ^ ^ / ( ( ( ( ( _ a : : < [ b } } 1 8 c d e f g h & ",
"  . = = - - - ; > ; > > > > > , , , , 6 ) ) ) ! ! ! ! ! ! ~ ! { { ] ] ] ] ^ / ( ( ( ( ( ( _ : : : < [ } } } | | 2 3 i 9 f j k & ",
"    = - - $ ; > > > > > > , , , l 6 ) ) ) ! ! ! ! ! ! { { { { ] ] ] ] ^ / / ( ( ( ( ( _ a : : < [ b } } } | 1 m c n o 9 4 j p & ",
".   - - ; > > > > > > , , , , 6 ) 6 ) ) ! ! ! ! ! ! { { { ] ] ] ] ^ ^ / ( ( ( ( ( 7 _ : : : [ [ b } } } | | 1 2 3 n e f 4 j q & ",
"    - ; > > > > > > , , , ) ) ) ) ) ! ! ! ! ! { ~ { { ] ] ] ] ] ^ / ( ( ( ( ( ( _ a : : < < [ b } } } | 1 1 8 c d i e f 4 r q & ",
"    $ > > > > > , , , l ) 6 ) ) ! ! ! ! ! ~ ! { { { ] ] ] ] ] ^ / ( ( ( ( ( _ a a : : < < [ b } } } | | 1 1 m c d o f f 0 s q & ",
"  + > > > > , , , , ) ) ) ) ! ! ! ! ! ! { { { { ] ] ] ] ] / ^ / ( ( ( ( 7 7 a : : : < [ [ b } } } | 1 1 1 8 2 3 n o 9 4 j s t & ",
"  + $ > > , , , u ) ) ) ! ! ! ! ! ! v ~ { { ] ] ] ] ] ^ ^ / / ( ( ( ( _ _ : : : : < < [ b } } } | 1 1 1 8 m 2 3 i o f 0 j s t & ",
"+ + > > > , , ) ) ) ! ! ! ! ! ! v ~ ~ { { ] ] ] ] / ^ / / ( / ( ( ( _ a : : : : < [ [ [ } } } | 1 1 1 8 w m c d i e f 0 j x t & ",
"+ + > > , , ) ) ! ! ! ! ! ! ! ~ ~ ~ { ] ] ] ] ] ^ / / / ( ( ( ( ( _ a : : : : < < [ b } } } | | 1 1 8 w m c c n i f 4 j r x t & ",
"+ + > , , , ) ) ! ! ! ! ! ~ ~ ~ { { ] ] ] ] ] / / / / / ( ( 7 ( _ : : : : : [ < [ b } } } | 1 1 1 8 w m c c 3 n o y 0 j z x t & ",
"+ + > , , ) ) ! ! ! ! ! A ~ ~ { { ] ] ] ] ] ^ / / / ( ( ( ( 7 _ : : : : : < < [ b } } } | 1 1 1 8 w m c B c 3 i e f 0 j C D E & ",
"+ @ , , l ) ! ! ! ! ~ ~ ~ { { ] ] ] ] ] ] / / / / / ( ( ( _ _ : : : : < < [ [ b } } } | 1 1 1 8 w m c B c 3 d i e F 0 r C G E & ",
"+ @ , , ) ) ! ! ! ! ~ ~ { { ] ] ] ] ] ] ^ / / / ( ( ( ( _ _ : : : : < < [ [ b } } } | | 1 1 8 w m c B c 3 3 H I y 4 j r s G E & ",
"@ @ , ) ) ! ! ! ! { ~ { { ] ] ] ] ] ] / / / ( / ( ( ( _ _ : : : : < [ [ b b } } } | 1 1 1 8 w m c B c 3 3 d H e y 0 j z s J E & ",
"+ @ , ) ) ! ! ! K L M { ] ] ] ] ] ] ^ / / / ( ( ( ( _ _ : : : : < < [ b b } } } | 1 1 N O w m c B c 3 3 d d i I f 0 r z s J P & ",
"@ @ ) ) ! ! ! ! Q R S T U V ] ] ^ ^ / / ( / ( W ( _ _ : : : < < [ [ b b b } } 1 1 1 1 X & Y c B c 3 3 d d H i y f g r C x Z P & ",
"@ @ ) ) ! ! ! ! ! `  ...+.@.#.$.^ / / ( / ( W W _ _ : : : : < < [ b b } } } | %.&.*.8 =.& -.B c 3 3 d d H i I y 4 j r s x J ;.& ",
"@ # ) ! ! ! ! { { ] ] >.,.'.).!.~.{.( / ( W W _ _ : : : < < < [ b b b } } | ].^.& /.w (.& _.:.3 3 d d H H <.i [.4 j r s x Z ;.& ",
"@ # ) ! ! ! ! { ] ] ] ] ] }.|.1.2.3.4.5.W W _ 6.: : : : < < [ b b b } } 1 1 7.8.& 9.0.a.& & b.3 d d H H i c.y d.0 j z s e.Z f.& ",
"# # ! ! ! { { { ] ] ] ] / / g.h.i.j.=.k.l.m.6.6.: : < [ < [ b b b } } 1 1 1 n.o.& & p.q.& & r.s.t.H H i i u.v.w.g r z x e.Z x.& ",
"@ # ! ! ! { { ] ] ] ] ^ / / / ( y.z.A.B.& C.D.: : : < [ [ b b } } 1 1 1 1 1 8 E.& & & & & & & & F.G.H.I.i J.K.L.j r s x J Z x.& ",
"# # ! ! { { ] ] ] ] / / / / / / ( ( M.N.O.P.Q.R.: [ [ [ b b b } 1 1 1 1 1 8 S.T.& & & & & & 3.U.& & & 3.V.W.X.Y.j r s e.J Z.x.& ",
"@ # ! ! { ] ] ] ^ ^ / / / / ( ( ( W _ `. +.+++!.@+#+$+%+&+*+=+-+;+>+,+'+8 w )+& & & & & & !+~+{+& & & & & 3.]+^+j z s J /+Z.(+& ",
"# # ! { { ] ] ^ ^ / / / ( ( ( ( W _ 6.: _+:+<+2.& & & & & & & & & & & [+}+|+1+& & & & & & 2+3+Q.& & & & & & & 4+r s x J /+Z.(+& ",
"# # { { ] ] ^ ^ / / ( ( ( ( ( _ _ 6.: _+: : 5+6+& & & & & & & & & & & & & & & & & & & & & 7+8+!+& & & & & & & 9+r s e.J Z 0+a+& ",
"# # { { ] ] ^ / ( ( ( ( ( ( _ _ 6.: _+: [ [ [ b+& & & & & & & & & & & & & & & & & & & & & & & & & & & & & & & c+z x e.J Z 0+a+& ",
"# $ { ] ] ^ / ( ( ( ( ( ( _ _ 6.: _+: : _+[ d+e+& & & & & & & & & & & & & & & & & & & & & & & f+g+7+& & & !.h+i+s x j+J Z.k+a+& ",
"$ # ] ] ^ / ( ( ( ( ( ( _ _ 6.: : : [ [ [ [ l+& & & & & & & & & & & & & & & & & & & & & & & m+P.n+o+m+& p+q+r+s+s x j+/+Z.k+a+& ",
"# $ ] ] ^ / ( ( ( ( W _ a : : : _+[ [ [ [ b t+& & & & & & & & & & & & & & & & & & & & & & & & & u+m+v+w+x+y+j r s x J Z Z.k+z+& ",
"$ $ ] ^ / ( ( ( ( a _ a : : : _+[ [ [ [ A+} B+& & & & & & & & & & & & & & & & & & & & & & & & & C+D+E+F+0 0 j z s e.J G+H+I+z+& ",
"$ $ ] / / ( ( ( ( _ a : : : _+: [ [ [ } A+} o.& & & & & & & & & & & & & & & & & & & & & & & & J+K+L+M+0 0 0 r z x j+/+Z.H+I+N+& ",
"$ $ ^ / ( ( ( W a a a : : [ [ [ [ A+} A+} O+P+& & & & & & & & & & & & & & & & & & & & & & & & Q+R+4 0 0 0 j r S+x J /+Z.T+I+N+& ",
"$ $ / ( ( _ ( _ a a _+: [ : [ [ A+A+} } O+1 f+& & & & & & & & & & & & & & & & & & & & & & & & 8.U+4 0 0 j j r s x J Z Z.V+W+N+& ",
"$ $ ( ( ( _ _ a a _+: [ : [ [ A+} A+} 1 1 X+e+& & & & & & & & & & & & & & & & & & & & & & & & & Q.Y+0 j j j z x e.J Z+0+V+W+N+& ",
"$ $ ( ( _ _ _ : : : : [ [ [ A+} A+} 1 | `+ @& & & & & & & & & & & & & & & & & & & & & & & .@+@_.& @@j j j r S+x J J Z.0+V+#@N+& ",
"$ $ ( W W 6.6.: _+[ [ [ [ A+} A+} 1 1 1 $@%@&@m+& & n+*@3.& & & & & & & & & & & & & & & & o.=@-@;@>@j j r z s e.J Z Z.H+V+#@,@& ",
"$ $ ( W _ : : : [ : [ [ A+A+} } 1 1 1 1 '@)@!@& & %@~@{@]@^@/@(@_@:@<@[@}@|@1@2@3@4@5@& & & 6@7@8@9@j r z z s e.J Z+Z.k+I+#@0@& ",
"$ $ W W 6.6.: [ : [ [ } } } O+1 1 1 1 w a@2 b@& c@d@e@3 f@g@h@i@j@k@l@m@n@o@p@L.q@r@s@t@u@& 8.v@j j r z z s x G J Z.Z.k+I+#@w@& ",
"$ $ W 6.: : [ [ [ b } } } 1 1 1 1 1 w m 2 2 x@y@Q z@3 3 d d i i i i i i I e f y f 4 A@B@C@D@E@F@j r z z S+s e.J /+Z.0+V+W+#@w@& ",
"$ $ _ 6.: [ [ [ b } } } 1 1 1 w 1 w m 2 2 c G@H@I@3 d d d i H i i i o o e f f f 4 4 0 0 0 J@K@[.r z z S+s s e.J Z Z.0+I+W+L@M@& ",
"$ $ 6.: : : b b b } | 1 1 1 1 1 w m 2 c c c 3 3 d d d d i H i i i e e e f f f 4 4 4 0 0 j j j r z z s s s x e.J Z Z.N@I+W+L@M@& ",
"$ $ 6.: [ [ b } } | 1 1 1 w 1 w m 2 c c c d 3 3 d d n i n i e e e e e f y f 4 4 0 0 0 j j j r z z S+s s x x J J Z+H+V+W+#@L@M@& ",
"$ $ : _+[ b } } 1 1 1 w 1 w w B c B c c 3 3 d d n n i i i e e e e e y f f 4 4 4 0 0 j j j r z z S+s s x x x e./+Z.0+V+W+#@L@O@& ",
"$ $ : [ [ } } 1 1 1 w 1 w w B 2 B c c d d d H n i i i o e e e e 9 9 f f 4 4 0 0 0 j j j r z z S+s s x x x e.J Z Z.0+I+W+P@Q@M@& ",
"$ $ _+[ } } 1 1 1 w 1 w w B c B c c 3 3 3 H H i n i e e e e e 9 f f f 4 4 4 0 0 j j j r z z s s s x x x x J J G+Z.0+I+W+#@Q@O@& ",
"$ $ [ b } 1 1 1 w 1 w w m B B c c d d d n n n n i e e e e e f f f f 4 4 0 0 0 j j j r z z S+s s x x x x J J Z Z.0+0+W+W+L@R@O@& ",
"$ $ [ } 1 1 1 w 1 w w B c c c c 3 3 d H n n i i e e e e e f y f f 4 4 4 0 0 j j j r z z S+s s x x x x D J /+G+H+0+I+W+#@L@Q@O@& ",
"$ $ } } 1 1 w 1 w w m B c c 3 d d n n i i i o e e e 9 y f f f 4 S@0 T@j j j r r z z s s s s x x x e.J J /+/+H+H+k+I+P@#@U@Q@O@& ",
"$ $ } 1 1 1 1 w B c c c 3 3 n n n o o o o e f e f f f f 4 0 j T@j r r r r z S+S+s s x x e.e.e.e.J J J /+/+H+H+k+I+P@#@L@R@V@W@& ",
"$ $ O+1 1 w B c c 3 3 d i i o o o o e f f f f 4 4 0 g j j r r r z z S+S+s s x e.e.e.e.G J J J J /+Z Z Z.Z.H+X@k+I+P@Y@Z@`@* O@& ",
"$ $ 1 1 B c c 3 3 i i o o o f e f 4 4 4 4 0 0 j j j r r z S+s s S+x x x e.e.e.e.J J J J J J Z Z.Z.Z.H+H+ #X@X@I+P@Y@Z@`@`@V@W@& ",
"$ $ 1 B c 3 H i o o o f f 4 4 4 S@.#4 j j j r r r z s s x x x x e.e.j+j+J J J /+/+Z Z Z+Z+Z.Z.H+H+ # #N@k+I+I+P@Z@Z@R@R@V@5 W@& ",
"$ $ c c d i o o f f 4 4 S@S@j .#j j r r z z C s s x x x e.j+j+j+j+J J /+Z Z Z Z+Z.Z.Z.Z.0+H+k+k+N@I+X@I+I+I+P@Y@Z@R@`@V@V@+#W@& ",
"$ $ c d i e f 4 4 4 T@j j j j r r z s s s x x x e.j+j+J J J /+/+Z Z G+G+Z.Z.Z.0+Z.0+0+k+V+V+I+I+I+P@P@P@Y@Y@Y@Z@R@`@`@V@+#@#W@& ",
"$ $ d i y 4 .#S@j j r r r r s s s x x x e.x j+J J /+/+/+Z Z G+G+G+G+Z.0+0+0+T+k+V+V+I+I+I+W+P@P@P@#@#@#@Y@Y@Z@R@`@V@V@5 @#k ##& ",
"$ $ i f .#j j r r s s s s x x x e.e.J J J J /+Z Z G+G+G+G+H+G+0+0+N@N@0+V+I+I+I+I+W+W+#@#@Y@#@Y@U@U@U@R@R@R@`@`@`@V@+#@#@#$#%#& ",
"$ $ f &#&#s s x x x x D x J J J J Z+/+Z+Z+Z.Z.Z.H+H+H+H+X@k+V+V+I+I+I+W+*#*##@*#=#=#=#Y@=#R@R@R@R@`@`@`@`@`@V@V@+#@#@#q $#O@-#& ",
"$ $ ;#h h h p p >#>#q q q t t E E E P P ;.;.;.,#f.,#,#x.x.(+(+a+a+a+N+N+'#'#,@,@,@0@w@w@w@w@)#)#)#)#)#W@W@W@W@W@W@!#%#%#%#-#& & ",
"% -#-#-#-#& & & & & & & & & & & & & & & & & & & & & & & & & & & & & & & & & & & & & & & & & & & & & & & & & & & & & & & & & & & "};
